<svg xmlns="http://www.w3.org/2000/svg" style="display:none">
  <defs>
    <symbol id="ti-pointer" viewBox="0 0 24 24">
<path d="M7.904 17.563a1.2 1.2 0 0 0 2.228 .308l2.09 -3.093l4.907 4.907a1.067 1.067 0 0 0 1.509 0l1.047 -1.047a1.067 1.067 0 0 0 0 -1.509l-4.907 -4.907l3.113 -2.09a1.2 1.2 0 0 0 -.309 -2.228l-13.582 -3.904l3.904 13.563" />
    </symbol>
    <symbol id="ti-rectangle" viewBox="0 0 24 24">
<path d="M3 7a2 2 0 0 1 2 -2h14a2 2 0 0 1 2 2v10a2 2 0 0 1 -2 2h-14a2 2 0 0 1 -2 -2v-10" />
    </symbol>
    <symbol id="ti-square-rounded" viewBox="0 0 24 24">
<path d="M12 3c7.2 0 9 1.8 9 9c0 7.2 -1.8 9 -9 9c-7.2 0 -9 -1.8 -9 -9c0 -7.2 1.8 -9 9 -9" />
    </symbol>
    <symbol id="ti-circle" viewBox="0 0 24 24">
<path d="M3 12a9 9 0 1 0 18 0a9 9 0 1 0 -18 0" />
    </symbol>
    <symbol id="ti-oval" viewBox="0 0 24 24">
<path d="M6 12a6 9 0 1 0 12 0a6 9 0 1 0 -12 0" />
    </symbol>
    <symbol id="ti-line" viewBox="0 0 24 24">
<path d="M4 18a2 2 0 1 0 4 0a2 2 0 1 0 -4 0" />
  <path d="M16 6a2 2 0 1 0 4 0a2 2 0 1 0 -4 0" />
  <path d="M7.5 16.5l9 -9" />
    </symbol>
    <symbol id="ti-line-dashed" viewBox="0 0 24 24">
<path d="M5 12h2" />
  <path d="M17 12h2" />
  <path d="M11 12h2" />
    </symbol>
    <symbol id="ti-polygon" viewBox="0 0 24 24">
<path d="M10 5a2 2 0 1 0 4 0a2 2 0 1 0 -4 0" />
  <path d="M17 8a2 2 0 1 0 4 0a2 2 0 1 0 -4 0" />
  <path d="M3 11a2 2 0 1 0 4 0a2 2 0 1 0 -4 0" />
  <path d="M13 19a2 2 0 1 0 4 0a2 2 0 1 0 -4 0" />
  <path d="M6.5 9.5l3.5 -3" />
  <path d="M14 5.5l3 1.5" />
  <path d="M18.5 10l-2.5 7" />
  <path d="M13.5 17.5l-7 -5" />
    </symbol>
    <symbol id="ti-vector-bezier" viewBox="0 0 24 24">
<path d="M3 15a1 1 0 0 1 1 -1h2a1 1 0 0 1 1 1v2a1 1 0 0 1 -1 1h-2a1 1 0 0 1 -1 -1l0 -2" />
  <path d="M17 15a1 1 0 0 1 1 -1h2a1 1 0 0 1 1 1v2a1 1 0 0 1 -1 1h-2a1 1 0 0 1 -1 -1l0 -2" />
  <path d="M10 7a1 1 0 0 1 1 -1h2a1 1 0 0 1 1 1v2a1 1 0 0 1 -1 1h-2a1 1 0 0 1 -1 -1l0 -2" />
  <path d="M10 8.5a6 6 0 0 0 -5 5.5" />
  <path d="M14 8.5a6 6 0 0 1 5 5.5" />
  <path d="M10 8l-6 0" />
  <path d="M20 8l-6 0" />
  <path d="M2 8a1 1 0 1 0 2 0a1 1 0 1 0 -2 0" />
  <path d="M20 8a1 1 0 1 0 2 0a1 1 0 1 0 -2 0" />
    </symbol>
    <symbol id="ti-text-size" viewBox="0 0 24 24">
<path d="M3 7v-2h13v2" />
  <path d="M10 5v14" />
  <path d="M12 19h-4" />
  <path d="M15 13v-1h6v1" />
  <path d="M18 12v7" />
  <path d="M17 19h2" />
    </symbol>
    <symbol id="ti-photo" viewBox="0 0 24 24">
<path d="M15 8h.01" />
  <path d="M3 6a3 3 0 0 1 3 -3h12a3 3 0 0 1 3 3v12a3 3 0 0 1 -3 3h-12a3 3 0 0 1 -3 -3v-12" />
  <path d="M3 16l5 -5c.928 -.893 2.072 -.893 3 0l5 5" />
  <path d="M14 14l1 -1c.928 -.893 2.072 -.893 3 0l3 3" />
    </symbol>
    <symbol id="ti-stack-2" viewBox="0 0 24 24">
<path d="M12 4l-8 4l8 4l8 -4l-8 -4" />
  <path d="M4 12l8 4l8 -4" />
  <path d="M4 16l8 4l8 -4" />
    </symbol>
    <symbol id="ti-scissors" viewBox="0 0 24 24">
<path d="M3 7a3 3 0 1 0 6 0a3 3 0 1 0 -6 0" />
  <path d="M3 17a3 3 0 1 0 6 0a3 3 0 1 0 -6 0" />
  <path d="M8.6 8.6l10.4 10.4" />
  <path d="M8.6 15.4l10.4 -10.4" />
    </symbol>
    <symbol id="ti-mask" viewBox="0 0 24 24">
<path d="M9 12a3 3 0 1 0 6 0a3 3 0 1 0 -6 0" />
  <path d="M4 6a2 2 0 0 1 2 -2h12a2 2 0 0 1 2 2v12a2 2 0 0 1 -2 2h-12a2 2 0 0 1 -2 -2l0 -12" />
    </symbol>
    <symbol id="ti-circle-letter-s" viewBox="0 0 24 24">
<path d="M3 12a9 9 0 1 0 18 0a9 9 0 1 0 -18 0" />
  <path d="M10 15a1 1 0 0 0 1 1h2a1 1 0 0 0 1 -1v-2a1 1 0 0 0 -1 -1h-2a1 1 0 0 1 -1 -1v-2a1 1 0 0 1 1 -1h2a1 1 0 0 1 1 1" />
    </symbol>
    <symbol id="ti-gradienter" viewBox="0 0 24 24">
<path d="M3.227 14c.917 4 4.497 7 8.773 7c4.277 0 7.858 -3 8.773 -7" />
  <path d="M20.78 10a9 9 0 0 0 -8.78 -7a8.985 8.985 0 0 0 -8.782 7" />
  <path d="M10 12a2 2 0 1 0 4 0a2 2 0 1 0 -4 0" />
    </symbol>
    <symbol id="ti-filter" viewBox="0 0 24 24">
<path d="M4 4h16v2.172a2 2 0 0 1 -.586 1.414l-4.414 4.414v7l-6 2v-8.5l-4.48 -4.928a2 2 0 0 1 -.52 -1.345v-2.227" />
    </symbol>
    <symbol id="ti-sun" viewBox="0 0 24 24">
<path d="M8 12a4 4 0 1 0 8 0a4 4 0 1 0 -8 0" />
  <path d="M3 12h1m8 -9v1m8 8h1m-9 8v1m-6.4 -15.4l.7 .7m12.1 -.7l-.7 .7m0 11.4l.7 .7m-12.1 -.7l-.7 .7" />
    </symbol>
    <symbol id="ti-moon" viewBox="0 0 24 24">
<path d="M12 3c.132 0 .263 0 .393 0a7.5 7.5 0 0 0 7.92 12.446a9 9 0 1 1 -8.313 -12.454l0 .008" />
    </symbol>
    <symbol id="ti-arrow-back-up" viewBox="0 0 24 24">
<path d="M9 14l-4 -4l4 -4" />
  <path d="M5 10h11a4 4 0 1 1 0 8h-1" />
    </symbol>
    <symbol id="ti-arrow-forward-up" viewBox="0 0 24 24">
<path d="M15 14l4 -4l-4 -4" />
  <path d="M19 10h-11a4 4 0 1 0 0 8h1" />
    </symbol>
    <symbol id="ti-file-import" viewBox="0 0 24 24">
<path d="M14 3v4a1 1 0 0 0 1 1h4" />
  <path d="M5 13v-8a2 2 0 0 1 2 -2h7l5 5v11a2 2 0 0 1 -2 2h-5.5m-9.5 -2h7m-3 -3l3 3l-3 3" />
    </symbol>
    <symbol id="ti-file-type-svg" viewBox="0 0 24 24">
<path d="M14 3v4a1 1 0 0 0 1 1h4" />
  <path d="M5 12v-7a2 2 0 0 1 2 -2h7l5 5v4" />
  <path d="M4 20.25c0 .414 .336 .75 .75 .75h1.25a1 1 0 0 0 1 -1v-1a1 1 0 0 0 -1 -1h-1a1 1 0 0 1 -1 -1v-1a1 1 0 0 1 1 -1h1.25a.75 .75 0 0 1 .75 .75" />
  <path d="M10 15l2 6l2 -6" />
  <path d="M20 15h-1a2 2 0 0 0 -2 2v2a2 2 0 0 0 2 2h1v-3" />
    </symbol>
    <symbol id="ti-file-type-png" viewBox="0 0 24 24">
<path d="M14 3v4a1 1 0 0 0 1 1h4" />
  <path d="M5 12v-7a2 2 0 0 1 2 -2h7l5 5v4" />
  <path d="M20 15h-1a2 2 0 0 0 -2 2v2a2 2 0 0 0 2 2h1v-3" />
  <path d="M5 18h1.5a1.5 1.5 0 0 0 0 -3h-1.5v6" />
  <path d="M11 21v-6l3 6v-6" />
    </symbol>
    <symbol id="ti-file-type-jpg" viewBox="0 0 24 24">
<path d="M14 3v4a1 1 0 0 0 1 1h4" />
  <path d="M5 12v-7a2 2 0 0 1 2 -2h7l5 5v4" />
  <path d="M11 18h1.5a1.5 1.5 0 0 0 0 -3h-1.5v6" />
  <path d="M20 15h-1a2 2 0 0 0 -2 2v2a2 2 0 0 0 2 2h1v-3" />
  <path d="M5 15h3v4.5a1.5 1.5 0 0 1 -3 0" />
    </symbol>
    <symbol id="ti-settings-2" viewBox="0 0 24 24">
<path d="M19.875 6.27a2.225 2.225 0 0 1 1.125 1.948v7.284c0 .809 -.443 1.555 -1.158 1.948l-6.75 4.27a2.269 2.269 0 0 1 -2.184 0l-6.75 -4.27a2.225 2.225 0 0 1 -1.158 -1.948v-7.285c0 -.809 .443 -1.554 1.158 -1.947l6.75 -3.98a2.33 2.33 0 0 1 2.25 0l6.75 3.98h-.033" />
  <path d="M9 12a3 3 0 1 0 6 0a3 3 0 1 0 -6 0" />
    </symbol>
    <symbol id="ti-zoom-in" viewBox="0 0 24 24">
<path d="M3 10a7 7 0 1 0 14 0a7 7 0 1 0 -14 0" />
  <path d="M7 10l6 0" />
  <path d="M10 7l0 6" />
  <path d="M21 21l-6 -6" />
    </symbol>
    <symbol id="ti-zoom-out" viewBox="0 0 24 24">
<path d="M3 10a7 7 0 1 0 14 0a7 7 0 1 0 -14 0" />
  <path d="M7 10l6 0" />
  <path d="M21 21l-6 -6" />
    </symbol>
    <symbol id="ti-zoom-reset" viewBox="0 0 24 24">
<path d="M21 21l-6 -6" />
  <path d="M3.268 12.043a7.017 7.017 0 0 0 6.634 4.957a7.012 7.012 0 0 0 7.043 -6.131a7 7 0 0 0 -5.314 -7.672a7.021 7.021 0 0 0 -8.241 4.403" />
  <path d="M3 4v4h4" />
    </symbol>
    <symbol id="ti-trash" viewBox="0 0 24 24">
<path d="M4 7l16 0" />
  <path d="M10 11l0 6" />
  <path d="M14 11l0 6" />
  <path d="M5 7l1 12a2 2 0 0 0 2 2h8a2 2 0 0 0 2 -2l1 -12" />
  <path d="M9 7v-3a1 1 0 0 1 1 -1h4a1 1 0 0 1 1 1v3" />
    </symbol>
    <symbol id="ti-grid-3x3" viewBox="0 0 24 24">
<path d="M3 8h18" />
  <path d="M3 16h18" />
  <path d="M8 3v18" />
  <path d="M16 3v18" />
    </symbol>
    <symbol id="ti-magnet" viewBox="0 0 24 24">
<path d="M4 13v-8a2 2 0 0 1 2 -2h1a2 2 0 0 1 2 2v8a2 2 0 0 0 6 0v-8a2 2 0 0 1 2 -2h1a2 2 0 0 1 2 2v8a8 8 0 0 1 -16 0" />
  <path d="M4 8l5 0" />
  <path d="M15 8l4 0" />
    </symbol>
    <symbol id="ti-template" viewBox="0 0 24 24">
<path d="M4 5a1 1 0 0 1 1 -1h14a1 1 0 0 1 1 1v2a1 1 0 0 1 -1 1h-14a1 1 0 0 1 -1 -1l0 -2" />
  <path d="M4 13a1 1 0 0 1 1 -1h4a1 1 0 0 1 1 1v6a1 1 0 0 1 -1 1h-4a1 1 0 0 1 -1 -1l0 -6" />
  <path d="M14 12l6 0" />
  <path d="M14 16l6 0" />
  <path d="M14 20l6 0" />
    </symbol>
    <symbol id="ti-ruler-2" viewBox="0 0 24 24">
<path d="M17 3l4 4l-14 14l-4 -4l14 -14" />
  <path d="M16 7l-1.5 -1.5" />
  <path d="M13 10l-1.5 -1.5" />
  <path d="M10 13l-1.5 -1.5" />
  <path d="M7 16l-1.5 -1.5" />
    </symbol>
    <symbol id="ti-plus" viewBox="0 0 24 24">
<path d="M12 5l0 14" />
  <path d="M5 12l14 0" />
    </symbol>
    <symbol id="ti-minus" viewBox="0 0 24 24">
<path d="M5 12l14 0" />
    </symbol>
    <symbol id="ti-code" viewBox="0 0 24 24">
<path d="M7 8l-4 4l4 4" />
  <path d="M17 8l4 4l-4 4" />
  <path d="M14 4l-4 16" />
    </symbol>
    <symbol id="ti-braces" viewBox="0 0 24 24">
<path d="M7 4a2 2 0 0 0 -2 2v3a2 3 0 0 1 -2 3a2 3 0 0 1 2 3v3a2 2 0 0 0 2 2" />
  <path d="M17 4a2 2 0 0 1 2 2v3a2 3 0 0 0 2 3a2 3 0 0 0 -2 3v3a2 2 0 0 1 -2 2" />
    </symbol>
    <symbol id="ti-layout-sidebar-right-collapse" viewBox="0 0 24 24">
<path d="M4 6a2 2 0 0 1 2 -2h12a2 2 0 0 1 2 2v12a2 2 0 0 1 -2 2h-12a2 2 0 0 1 -2 -2l0 -12" />
  <path d="M15 4v16" />
  <path d="M9 10l2 2l-2 2" />
    </symbol>
    <symbol id="ti-layout-sidebar-right-expand" viewBox="0 0 24 24">
<path d="M4 6a2 2 0 0 1 2 -2h12a2 2 0 0 1 2 2v12a2 2 0 0 1 -2 2h-12a2 2 0 0 1 -2 -2l0 -12" />
  <path d="M15 4v16" />
  <path d="M10 10l-2 2l2 2" />
    </symbol>
    <symbol id="ti-maximize" viewBox="0 0 24 24">
<path d="M4 8v-2a2 2 0 0 1 2 -2h2" />
  <path d="M4 16v2a2 2 0 0 0 2 2h2" />
  <path d="M16 4h2a2 2 0 0 1 2 2v2" />
  <path d="M16 20h2a2 2 0 0 0 2 -2v-2" />
    </symbol>
    <symbol id="ti-minimize" viewBox="0 0 24 24">
<path d="M15 19v-2a2 2 0 0 1 2 -2h2" />
  <path d="M15 5v2a2 2 0 0 0 2 2h2" />
  <path d="M5 15h2a2 2 0 0 1 2 2v2" />
  <path d="M5 9h2a2 2 0 0 0 2 -2v-2" />
    </symbol>
    <symbol id="ti-eye" viewBox="0 0 24 24">
<path d="M10 12a2 2 0 1 0 4 0a2 2 0 0 0 -4 0" />
  <path d="M21 12c-2.4 4 -5.4 6 -9 6c-3.6 0 -6.6 -2 -9 -6c2.4 -4 5.4 -6 9 -6c3.6 0 6.6 2 9 6" />
    </symbol>
    <symbol id="ti-eye-off" viewBox="0 0 24 24">
<path d="M10.585 10.587a2 2 0 0 0 2.829 2.828" />
  <path d="M16.681 16.673a8.717 8.717 0 0 1 -4.681 1.327c-3.6 0 -6.6 -2 -9 -6c1.272 -2.12 2.712 -3.678 4.32 -4.674m2.86 -1.146a9.055 9.055 0 0 1 1.82 -.18c3.6 0 6.6 2 9 6c-.666 1.11 -1.379 2.067 -2.138 2.87" />
  <path d="M3 3l18 18" />
    </symbol>
    <symbol id="ti-lock" viewBox="0 0 24 24">
<path d="M5 13a2 2 0 0 1 2 -2h10a2 2 0 0 1 2 2v6a2 2 0 0 1 -2 2h-10a2 2 0 0 1 -2 -2v-6" />
  <path d="M11 16a1 1 0 1 0 2 0a1 1 0 0 0 -2 0" />
  <path d="M8 11v-4a4 4 0 1 1 8 0v4" />
    </symbol>
    <symbol id="ti-lock-open" viewBox="0 0 24 24">
<path d="M5 13a2 2 0 0 1 2 -2h10a2 2 0 0 1 2 2v6a2 2 0 0 1 -2 2h-10a2 2 0 0 1 -2 -2l0 -6" />
  <path d="M11 16a1 1 0 1 0 2 0a1 1 0 1 0 -2 0" />
  <path d="M8 11v-5a4 4 0 0 1 8 0" />
    </symbol>
    <symbol id="ti-chevron-up" viewBox="0 0 24 24">
<path d="M6 15l6 -6l6 6" />
    </symbol>
    <symbol id="ti-chevron-down" viewBox="0 0 24 24">
<path d="M6 9l6 6l6 -6" />
    </symbol>
    <symbol id="ti-artboard" viewBox="0 0 24 24">
<path d="M8 9a1 1 0 0 1 1 -1h6a1 1 0 0 1 1 1v6a1 1 0 0 1 -1 1h-6a1 1 0 0 1 -1 -1l0 -6" />
  <path d="M3 8l1 0" />
  <path d="M3 16l1 0" />
  <path d="M8 3l0 1" />
  <path d="M16 3l0 1" />
  <path d="M20 8l1 0" />
  <path d="M20 16l1 0" />
  <path d="M8 20l0 1" />
  <path d="M16 20l0 1" />
    </symbol>
    <symbol id="ti-aspect-ratio" viewBox="0 0 24 24">
<path d="M3 7a2 2 0 0 1 2 -2h14a2 2 0 0 1 2 2v10a2 2 0 0 1 -2 2h-14a2 2 0 0 1 -2 -2v-10" />
  <path d="M7 12v-3h3" />
  <path d="M17 12v3h-3" />
    </symbol>
    <symbol id="ti-device-floppy" viewBox="0 0 24 24">
<path d="M6 4h10l4 4v10a2 2 0 0 1 -2 2h-12a2 2 0 0 1 -2 -2v-12a2 2 0 0 1 2 -2" />
  <path d="M10 14a2 2 0 1 0 4 0a2 2 0 1 0 -4 0" />
  <path d="M14 4l0 4l-6 0l0 -4" />
    </symbol>
    <symbol id="ti-x" viewBox="0 0 24 24">
<path d="M18 6l-12 12" />
  <path d="M6 6l12 12" />
    </symbol>
    <symbol id="ti-arrows-minimize" viewBox="0 0 24 24">
<path d="M5 9l4 0l0 -4" />
  <path d="M3 3l6 6" />
  <path d="M5 15l4 0l0 4" />
  <path d="M3 21l6 -6" />
  <path d="M19 9l-4 0l0 -4" />
  <path d="M15 9l6 -6" />
  <path d="M19 15l-4 0l0 4" />
  <path d="M15 15l6 6" />
    </symbol>
  </defs>
</svg>
